<?xml version="1.0" encoding="UTF-8"?>
<svg width="231px" height="210px" viewBox="0 0 231 210" version="1.1" xmlns="http://www.w3.org/2000/svg" xmlns:xlink="http://www.w3.org/1999/xlink">
    <!-- Generator: Sketch 51.3 (57544) - http://www.bohemiancoding.com/sketch -->
    <title>icp-logo</title>
    <desc>Created with Sketch.</desc>
    <defs></defs>
    <g id="Page-1" stroke="none" stroke-width="1" fill="none" fill-rule="evenodd">
        <g id="Artboard-21" transform="translate(-704.000000, -325.000000)" stroke="#FFFFFF" stroke-width="3">
            <g id="icp-logo" transform="translate(706.000000, 327.000000)">
                <g id="Group">
                    <g>
                        <path d="M200.820716,119.846867 C202.131471,119.846867 203.257861,120.502784 203.826107,121.602253 C204.16958,122.266235 204.555988,123.610328 203.674575,125.537758 C205.523269,124.790442 207.806356,122.860324 209.182774,118.035029 C210.930447,111.892522 207.907377,106.908624 205.654597,104.23119 C204.947446,107.319916 202.591119,109.776919 200.441886,112.016179 C198.944241,113.575327 197.532465,115.048453 196.837942,116.532332 C195.686297,118.981271 196.47679,120.76085 197.158686,121.696339 C198.128492,120.535043 199.479655,119.846867 200.820716,119.846867 Z" id="Shape"></path>
                        <path d="M166.241044,110.871011 C164.710567,112.766183 163.076544,114.591462 161.333922,116.330718 C155.103419,122.553871 147.850073,127.440995 139.775926,130.852304 C131.426496,134.381893 122.556805,136.172225 113.416881,136.172225 C104.228972,136.172225 95.3289748,134.360387 86.9492382,130.801228 C80.4131446,132.553926 73.445184,133.57006 66.1691077,133.798556 C64.5754929,133.849632 63.0424911,133.903396 61.5625255,133.959848 C60.4815951,134.970606 57.9459545,137.55933 55.3118178,141.779783 C52.2205588,146.736799 48.3741637,155.013727 47.3412185,166.535295 C48.2125292,167.591753 50.2152812,169.642839 53.384832,170.82833 C53.4580726,170.36865 53.5237366,169.90897 53.6045538,169.446602 C54.566784,163.927754 56.0694794,158.145464 58.0671803,152.269088 C61.4690806,142.279786 65.105856,135.52706 65.2599138,135.242113 C65.9241305,134.018988 67.3889428,133.59963 68.5380628,134.303935 C69.6871828,135.010929 70.0811668,136.570077 69.4194757,137.793202 C69.3841182,137.860407 65.8079557,144.513669 62.5500111,154.10512 C59.6405908,162.669683 56.405376,175.368677 57.2943655,187.688637 C59.9916406,184.809589 62.3656468,183.352592 64.3810265,183.352592 C65.1689945,183.352592 65.8837218,183.69668 66.4469169,184.349909 C67.9445612,186.075725 68.5431138,190.266609 68.2299471,196.804279 C69.2250092,197.298905 70.2503778,197.745144 71.3010018,198.140308 C73.3668923,191.780058 75.8166646,188.403695 78.5972825,188.107995 C79.5342572,188.008532 80.3929403,188.304232 81.1531274,188.98972 C82.9462597,190.616073 84.1307372,194.500503 84.6888812,200.554299 C85.4036086,200.565052 86.1233871,200.559676 86.8507422,200.53817 C87.8230745,194.056952 89.5303385,190.29349 91.9422277,189.349937 C94.8870055,188.202081 97.8469366,191.234356 100.751306,198.371492 C101.200852,198.250523 101.652923,198.124179 102.10752,197.989769 C101.753945,194.901043 101.205903,188.938644 101.248837,182.043445 C101.337231,168.50036 103.617792,158.357831 108.027382,151.898118 C108.805248,150.755639 110.307943,150.505637 111.381297,151.336287 C112.454651,152.164249 112.692052,153.76372 111.914186,154.906199 C110.045287,157.640085 108.737058,161.078276 107.835441,164.828297 C111.047926,166.970782 115.328714,168.134766 120.074201,168.134766 C124.928286,168.134766 129.6864,166.911641 133.664123,164.667005 C132.767557,160.978813 131.471956,157.597074 129.630838,154.903511 C128.847921,153.761032 129.085322,152.16156 130.158676,151.333599 C131.23203,150.502949 132.734725,150.752951 133.512591,151.89543 C137.927232,158.355143 140.207793,168.497672 140.291136,182.040757 C140.33407,188.935956 139.786028,194.895666 139.432453,197.987081 C139.88705,198.118802 140.339121,198.245147 140.788667,198.368804 C143.693036,191.231668 146.655493,188.199393 149.597745,189.347249 C152.009634,190.290802 153.716898,194.054264 154.689231,200.535482 C155.416586,200.556988 156.13889,200.562364 156.853617,200.551611 C157.40671,194.500503 158.591188,190.613385 160.386846,188.987032 C161.144507,188.301544 162.00319,188.005843 162.94269,188.105306 C165.723308,188.401007 168.175606,191.77737 170.241497,198.13762 C171.292121,197.742456 172.314964,197.293529 173.312551,196.801591 C173.00191,190.26392 173.597937,186.075725 175.095582,184.349909 C175.658777,183.699368 176.37603,183.352592 177.166523,183.352592 C179.179377,183.352592 181.555909,184.812277 184.253184,187.694014 C185.139648,175.339107 181.886754,162.59979 178.962181,154.011033 C175.704236,144.4384 172.15838,137.863095 172.123023,137.79589 C171.463857,136.572765 171.855316,135.010929 173.004436,134.303935 C174.153556,133.596942 175.618368,134.018988 176.282585,135.242113 C176.436642,135.524372 180.073418,142.277098 183.475318,152.269088 C185.47807,158.142776 186.975714,163.925066 187.937945,169.446602 C188.023813,169.943916 188.097054,170.433166 188.17282,170.927793 C191.453494,169.779937 193.539589,167.685839 194.453834,166.586371 C192.271769,150.185743 184.7987,136.000181 178.846006,126.911422 C173.105457,118.13718 167.655345,112.32532 166.241044,110.871011 Z M84.4186486,171.812206 C81.8527015,172.857911 79.6251766,173.255762 77.7259717,173.255762 C75.119616,173.255762 73.1370683,172.508446 71.7328689,171.677797 C69.0709514,170.102519 67.8940505,167.906271 67.8460652,167.812184 C67.5909858,167.333687 67.7500948,166.734221 68.1996406,166.465402 C68.6441354,166.199272 69.209856,166.36594 69.4624098,166.83906 C69.4826142,166.874007 70.4928295,168.710038 72.7203545,169.99768 C75.7257452,171.736937 79.4357612,171.723496 83.7468554,169.962734 C84.2267077,169.769184 84.7646474,170.021874 84.9464862,170.532629 C85.1384271,171.043385 84.8959754,171.618657 84.4186486,171.812206 Z M72.4880049,163.884743 C72.6471138,163.790657 76.4884578,161.640107 80.7843988,165.158944 C81.1910105,165.492279 81.2642511,166.110562 80.9510843,166.546048 C80.7692455,166.798738 80.4939618,166.930459 80.2161526,166.930459 C80.0166351,166.930459 79.8196431,166.863254 79.6479065,166.726157 C76.301568,163.984206 73.4022498,165.607871 73.3744689,165.624 C72.9223975,165.884754 72.361728,165.707334 72.1142252,165.226148 C71.869248,164.747651 72.0359335,164.145497 72.4880049,163.884743 Z M85.5955495,163.349794 C85.4238129,163.494956 85.2192443,163.567537 85.0146757,163.567537 C84.7444431,163.567537 84.4691594,163.441192 84.2873206,163.196567 C82.0496935,160.218056 79.0973391,158.938479 75.5211766,159.398159 C72.7607631,159.750312 70.6292086,161.048706 70.6090043,161.059459 C70.1670351,161.330966 69.5962634,161.172363 69.341184,160.699242 C69.0835791,160.228809 69.2300603,159.623967 69.6745551,159.347084 C69.7705255,159.285255 72.1066486,157.85514 75.2307397,157.438471 C79.4635422,156.87664 83.0952665,158.438477 85.7369797,161.957313 C86.0602486,162.387423 85.9945846,163.011082 85.5955495,163.349794 Z M173.345383,166.462714 C173.794929,166.731533 173.954038,167.330999 173.70401,167.809496 C173.653499,167.903582 172.476598,170.099831 169.814681,171.675109 C168.413007,172.505758 166.427934,173.253074 163.821578,173.253074 C161.922373,173.253074 159.699899,172.860599 157.128901,171.809518 C156.651574,171.615968 156.414174,171.040696 156.596012,170.532629 C156.777851,170.021874 157.315791,169.766496 157.795643,169.962734 C162.149671,171.742313 165.889994,171.734249 168.905487,169.949293 C171.115333,168.642834 172.067461,166.860566 172.080089,166.841749 C172.332642,166.36594 172.895838,166.193896 173.345383,166.462714 Z M160.760625,165.158944 C165.059092,161.640107 168.89791,163.793345 169.057019,163.884743 C169.50909,164.145497 169.675776,164.744963 169.430799,165.226148 C169.188347,165.704646 168.627678,165.882066 168.175606,165.626688 C168.044278,165.551419 165.195471,164.024529 161.897118,166.726157 C161.725381,166.863254 161.528389,166.930459 161.328871,166.930459 C161.051062,166.930459 160.775778,166.796049 160.59394,166.546048 C160.280773,166.110562 160.356539,165.489591 160.760625,165.158944 Z M171.872994,159.349772 C172.317489,159.623967 172.469022,160.231497 172.211417,160.704618 C171.953812,161.175051 171.380514,161.333654 170.941071,161.062147 C170.920866,161.048706 168.791838,159.750312 166.028898,159.400848 C162.452736,158.941168 159.500382,160.220745 157.262754,163.199255 C157.080916,163.44388 156.810683,163.570225 156.535399,163.570225 C156.333356,163.570225 156.126262,163.497644 155.954526,163.352482 C155.552965,163.011082 155.489826,162.387423 155.81057,161.96269 C158.452283,158.443853 162.089058,156.879328 166.31681,157.443848 C169.443426,157.857828 171.777024,159.287944 171.872994,159.349772 Z" id="Shape"></path>
                        <path d="M170.183409,107.61024 C170.120271,107.61024 170.062183,107.620993 170.004096,107.637122 C170.622853,108.284975 171.544674,109.276916 172.686218,110.59144 C175.492091,112.155964 179.09856,115.271573 183.351567,119.830738 C188.064222,124.876464 192.249039,127.435618 195.79742,127.435618 C196.072704,127.435618 196.345462,127.419489 196.613169,127.389919 C199.578151,127.045831 200.896482,124.879152 200.952044,124.787754 C201.548071,123.790437 201.535444,123.196348 201.436948,123.005486 C201.358656,122.85226 201.116204,122.752797 200.820716,122.752797 C200.217113,122.752797 199.578151,123.123766 199.108401,123.742049 C199.060416,123.803878 199.012431,123.86033 198.956869,123.911405 C198.696738,124.199041 198.224463,124.61571 197.522363,124.903346 C197.46175,124.930228 197.403663,124.954422 197.340524,124.973239 C197.012204,125.088831 196.643476,125.180229 196.221711,125.215176 C196.090383,125.225929 195.954004,125.231305 195.815099,125.231305 C193.761836,125.231305 190.19325,124.024309 184.829007,118.276966 C179.439508,112.505429 174.658663,108.943581 170.610225,107.688198 C170.448591,107.634434 170.307161,107.61024 170.183409,107.61024 Z" id="Shape"></path>
                        <path d="M79.9509711,190.497793 C79.5822425,190.164457 79.2109883,190.030048 78.7866978,190.075747 C76.8571865,190.280049 74.8165514,193.403723 73.0688788,198.750526 C76.1172037,199.715585 79.3751483,200.293545 82.8098806,200.484407 C82.3072985,195.293518 81.292032,191.710165 79.9509711,190.497793 Z" id="Shape"></path>
                        <path d="M162.763377,190.075747 C162.334036,190.030048 161.965307,190.164457 161.596578,190.497793 C160.255518,191.712853 159.245302,195.293518 158.737669,200.487095 C162.172401,200.296234 165.430346,199.718273 168.478671,198.753214 C166.730998,193.403723 164.690363,190.280049 162.763377,190.075747 Z" id="Shape"></path>
                        <path d="M148.966361,191.207474 C147.22879,190.527363 144.920448,193.349959 142.634836,198.841924 C146.137758,199.691391 149.532081,200.226341 152.797602,200.444084 C151.959124,195.164485 150.600384,191.844574 148.966361,191.207474 Z" id="Shape"></path>
                        <path d="M92.5837145,191.207474 C90.9471655,191.844574 89.5859003,195.164485 88.7499471,200.444084 C92.0154683,200.226341 95.4123175,199.688703 98.9152394,198.841924 C96.6271015,193.349959 94.3187594,190.527363 92.5837145,191.207474 Z" id="Shape"></path>
                        <path d="M65.0831262,185.691315 C64.8078425,185.37142 64.5628652,185.331098 64.383552,185.331098 C62.8707545,185.331098 60.7972874,186.718202 58.4384345,189.274668 C59.8981957,190.987043 62.5045514,193.57039 66.4115594,195.823091 C66.5959237,190.532739 66.1337502,186.900999 65.0831262,185.691315 Z" id="Shape"></path>
                        <path d="M113.005218,118.037717 C113.639129,118.129115 114.280615,118.182879 114.929679,118.182879 C121.170284,118.182879 126.542105,113.811887 128.898432,107.575294 C127.45635,107.037657 125.938501,106.612923 124.354988,106.301093 C121.208167,110.634451 117.409758,114.569956 113.005218,118.037717 Z" id="Shape"></path>
                        <path d="M129.817728,104.282265 C130.047552,103.064516 130.171303,101.801069 130.171303,100.505363 C130.171303,99.2983668 130.06018,98.0994354 129.853086,96.9246978 C128.845396,99.1075055 127.698801,101.215044 126.418353,103.247313 C127.585152,103.534949 128.719119,103.881725 129.817728,104.282265 Z" id="Shape"></path>
                        <path d="M177.169049,185.331098 C176.98721,185.331098 176.744758,185.37142 176.466949,185.691315 C175.416325,186.900999 174.951626,190.532739 175.138516,195.825779 C179.040473,193.573078 181.646828,190.989731 183.111641,189.277356 C180.752788,186.718202 178.679321,185.331098 177.169049,185.331098 Z" id="Shape"></path>
                        <path d="M203.975114,54.9352198 C200.378747,48.2685165 196.310105,40.7147115 186.122082,29.1474437 C175.060224,16.5855467 163.177566,12.2656305 155.158981,10.8543324 C152.754668,10.4322871 150.55745,10.2360495 148.635515,10.171533 C156.858668,15.1850014 164.008468,21.956544 169.456054,29.929706 C170.23392,31.0721854 169.996519,32.6716566 168.923166,33.4996181 C167.849812,34.3302679 166.347116,34.0802665 165.56925,32.9377871 C153.800241,15.7065096 134.303084,5.41881868 113.416881,5.41881868 C104.668416,5.41881868 96.2129132,7.19571016 88.4721378,10.5102445 C88.31808,10.5989547 88.1564455,10.6715357 87.9872345,10.7226113 C76.7309095,15.6554341 67.0151631,23.8597802 60.1633772,34.6152157 C59.6936271,35.3437143 58.9384911,35.7361896 58.1732529,35.7361896 C57.7085538,35.7361896 57.2388037,35.5910275 56.8271409,35.2953269 C55.7310572,34.5023118 55.4456714,32.9135934 56.1881797,31.7442321 C61.7620431,22.9941841 69.3310818,15.5882294 78.1654154,10.1930385 C76.301568,10.2736841 74.20032,10.4779863 71.9248098,10.8892788 C60.3502671,12.9860646 50.0056615,19.1258832 41.1789046,29.1447555 C30.993408,40.7120234 26.92224,48.2658283 23.3283988,54.9325316 C19.3304714,62.3465508 15.8502794,68.7981992 5.49304615,77.8923352 C6.86693908,80.2283695 9.90011077,84.5886085 15.1279754,88.4488448 C24.6063212,95.4435069 36.7592123,97.8279286 51.2886351,95.5537225 C50.6168418,94.021456 49.9980849,92.4623077 49.4374154,90.8789657 C46.8739938,83.6235495 45.5783926,76.0025398 45.5783926,68.2363681 C45.5783926,66.8250701 46.6517465,65.6825907 47.9776542,65.6825907 C49.3060874,65.6825907 50.3769157,66.8277582 50.3769157,68.2363681 C50.3769157,78.0563146 52.596864,87.4891621 56.865024,96.0617898 C56.96352,96.2123283 57.0468628,96.3736195 57.1125268,96.5483516 C58.7490757,99.7634231 60.673536,102.85215 62.8808566,105.795714 C79.0342006,101.830639 86.774976,92.9219876 94.5208025,79.0213736 C102.014075,65.5669986 105.090181,60.4271854 105.218983,60.2175069 C105.933711,59.0293283 107.421253,58.679864 108.537541,59.4379327 C109.653829,60.1986896 109.984674,61.7793434 109.267422,62.9702102 C109.23459,63.0212857 106.09282,68.2686264 98.6500578,81.6262266 C93.8414326,90.2579945 89.4318425,96.0913599 84.3403569,100.545685 C78.3447286,105.790338 71.3868702,109.155948 62.4439385,111.131765 C59.6178609,111.752736 56.9003815,112.32532 54.271296,112.876398 C44.8308332,114.854904 36.6026289,116.58072 31.485888,119.252777 C31.091904,121.271606 30.468096,126.131848 32.3167902,130.854992 C36.2743089,130.381871 47.048256,129.282402 66.025152,128.685625 C73.1774769,128.459817 79.9358178,127.451747 86.1941022,125.74206 C86.3885686,125.658727 86.5931372,125.602275 86.8027569,125.575393 C109.484618,119.185573 125.468751,103.51882 129.42627,82.4595646 C129.683874,81.0778365 130.951695,80.177294 132.252347,80.4541772 C133.550474,80.7310604 134.399055,82.077842 134.136399,83.4622582 C133.58078,86.4138874 132.810491,89.2741181 131.835633,92.0402624 C132.853425,94.6961909 133.39389,97.5859918 133.39389,100.508051 C133.39389,102.811827 133.06557,105.029581 132.464492,107.107549 C132.451865,107.145184 132.446814,107.182819 132.43166,107.220453 C132.43166,107.223141 132.429135,107.22583 132.426609,107.228518 C129.964209,115.580714 123.05181,121.613005 114.927153,121.613005 C113.03805,121.613005 111.194407,121.293111 109.421479,120.661387 C104.948751,123.709791 100.04163,126.252816 94.7784074,128.268956 C100.779087,130.121117 107.022218,131.061982 113.416881,131.061982 C148.178393,131.061982 176.456847,102.879032 176.456847,68.2390563 C176.456847,66.8277582 177.532726,65.6852788 178.856108,65.6852788 C180.182016,65.6852788 181.260421,66.8304464 181.260421,68.2390563 C181.260421,77.429967 179.459712,86.3466827 175.903754,94.7365137 C175.797681,94.9865151 175.686558,95.2338283 175.575434,95.4838297 C190.248812,97.8386813 202.932066,95.373614 212.385157,88.2875536 C217.522102,84.4353819 220.46688,80.1934231 221.810466,77.8977115 C211.450708,68.8035755 207.973041,62.349239 203.975114,54.9352198 Z M99.7259372,68.5320687 C99.5036898,68.9433613 99.0112098,69.083147 98.6248025,68.8492747 C95.1193551,66.7041016 91.4674265,66.0643132 87.759936,66.9406621 C84.969216,67.5992679 83.1937625,68.9218558 83.1786092,68.9352967 C83.0346535,69.0428242 82.8730191,69.0938997 82.7088591,69.0938997 C82.4588308,69.0938997 82.2088025,68.9675549 82.0522191,68.7309945 C81.7946142,68.3438956 81.8804825,67.8116346 82.2391089,67.5374396 C82.3224517,67.4782995 84.2494375,66.0320549 87.3381711,65.2820508 C90.1794018,64.5965632 94.5814154,64.3976374 99.4253982,67.3600192 C99.8118055,67.5992679 99.9481846,68.1234643 99.7259372,68.5320687 Z M92.8665748,62.7551552 C88.7347938,62.7551552 85.3834043,59.0320165 85.3834043,54.4432816 C85.3834043,49.8545467 88.7322683,46.131408 92.8665748,46.131408 C97.0034068,46.131408 100.352271,49.8545467 100.352271,54.4432816 C100.352271,59.0320165 97.0034068,62.7551552 92.8665748,62.7551552 Z M132.525105,46.131408 C136.656886,46.131408 140.010801,49.8545467 140.010801,54.4432816 C140.010801,59.0320165 136.656886,62.7551552 132.525105,62.7551552 C128.393324,62.7551552 125.041935,59.0320165 125.041935,54.4432816 C125.041935,49.8545467 128.390799,46.131408 132.525105,46.131408 Z M141.819087,68.7363709 C141.659978,68.9702431 141.412475,69.0965879 141.162447,69.0965879 C140.998287,69.0965879 140.836652,69.0455124 140.692697,68.9379849 C140.66239,68.911103 138.884411,67.5992679 136.11137,66.9433503 C132.403879,66.0670014 128.7469,66.7067898 125.246503,68.8519629 C124.860096,69.0858352 124.367616,68.9460495 124.145369,68.5347569 C123.923121,68.1234643 124.056975,67.5992679 124.443382,67.3627074 C129.287365,64.4030137 133.689378,64.6019396 136.530609,65.284739 C139.614292,66.0320549 141.546329,67.4809876 141.629671,67.5401277 C141.993349,67.8143228 142.076692,68.3519602 141.819087,68.7363709 Z" id="Shape"></path>
                        <ellipse id="Oval" fill="#FFFFFF" cx="92.8665748" cy="54.4432816" rx="7.485696" ry="8.31187363"></ellipse>
                        <ellipse id="Oval" fill="#FFFFFF" cx="132.525105" cy="54.4432816" rx="7.485696" ry="8.31187363"></ellipse>
                        <path d="M99.4279237,67.3600192 C94.5839409,64.4003255 90.1819274,64.5992514 87.3406966,65.2820508 C84.2519631,66.0293668 82.3249772,67.4782995 82.2416345,67.5374396 C81.883008,67.8116346 81.7971397,68.3465838 82.0547446,68.7309945 C82.2088025,68.9648668 82.4613563,69.0938997 82.7113846,69.0938997 C82.8755446,69.0938997 83.0371791,69.0428242 83.1811348,68.9352967 C83.196288,68.9218558 84.9742671,67.601956 87.7624615,66.9406621 C91.469952,66.0643132 95.1218806,66.7041016 98.627328,68.8492747 C99.0137354,69.083147 99.5062154,68.9433613 99.7284628,68.5320687 C99.9481846,68.1234643 99.8118055,67.5992679 99.4279237,67.3600192 Z" id="Shape" fill="#FFFFFF"></path>
                        <path d="M141.632197,67.5401277 C141.548854,67.4809876 139.616817,66.0347431 136.533135,65.284739 C133.691904,64.5992514 129.28989,64.4003255 124.445908,67.3627074 C124.0595,67.5992679 123.925647,68.1234643 124.147894,68.5347569 C124.370142,68.9460495 124.862622,69.0858352 125.249029,68.8519629 C128.749425,66.7067898 132.406405,66.0670014 136.113895,66.9433503 C138.886937,67.5992679 140.664916,68.911103 140.695222,68.9379849 C140.839178,69.0455124 141.000812,69.0965879 141.164972,69.0965879 C141.415001,69.0965879 141.662503,68.9729313 141.821612,68.7363709 C142.076692,68.3519602 141.993349,67.8143228 141.632197,67.5401277 Z" id="Shape" fill="#FFFFFF"></path>
                        <path d="M226.391793,75.2659766 C215.504197,66.0454959 212.253829,60.018581 208.139727,52.3868187 C204.417083,45.4808668 200.196908,37.6501786 189.625004,25.6501126 C184.344103,19.655456 178.434343,14.8758599 172.057359,11.4403571 C166.943143,8.68765385 161.518287,6.79248214 155.944423,5.80860577 C147.673285,4.35160852 141.546329,5.33817308 139.879473,5.67150824 C131.555298,2.14729533 122.521447,0.303199176 113.419407,0.303199176 C104.362826,0.303199176 95.4022154,2.13116621 87.1184492,5.61236813 C85.0980185,5.23871016 79.1882585,4.42687775 71.3590892,5.80591758 C65.7827003,6.78979396 60.3603692,8.68496566 55.2411028,11.437669 C48.8666437,14.8731717 42.9594092,19.6527679 37.6759828,25.6474245 C27.1066043,37.6501786 22.8813785,45.4781786 19.1637858,52.3841305 C15.0471582,60.0132047 11.7993157,66.0401195 0.909193846,75.2632885 C0.0454596923,75.9944753 -0.239926154,77.2606113 0.222247385,78.3305096 C0.358626462,78.6423393 3.63677538,86.0832404 12.14784,92.4649959 C17.1105231,96.1827582 22.8460209,98.7876113 29.1901735,100.206974 C32.9734302,101.056441 36.9789342,101.478486 41.1789046,101.478486 C45.1591532,101.478486 49.3161895,101.096764 53.6197071,100.338695 C54.8395422,102.612901 56.1881797,104.822591 57.6656197,106.951635 C56.2008074,107.263464 54.7587249,107.567229 53.3444234,107.86293 C42.4972357,110.134448 33.9280837,111.930157 28.2531988,115.285014 C27.7127335,115.607596 27.3111729,116.131793 27.1242831,116.75814 C27.0131594,117.147927 24.3916505,126.338838 28.8012406,134.846949 C29.2305822,135.669534 30.04128,136.169537 30.9075397,136.169537 C31.0161378,136.169537 31.1222105,136.161473 31.2333342,136.145343 C31.3242535,136.131902 38.7670154,135.062004 54.6172948,134.263613 C53.6272837,135.510931 52.5488788,136.992122 51.4527951,138.731379 C47.8993625,144.368507 43.4569403,153.865871 42.4770314,167.124008 C42.4340972,167.704657 42.5805785,168.287993 42.8912197,168.769179 C43.0377009,168.997674 46.2703902,173.925121 52.7256665,175.962766 C52.2761206,180.527308 52.2205588,184.890235 52.5791852,188.987032 C52.6145428,189.39026 52.7433452,189.785423 52.9479138,190.126823 C53.0994462,190.379512 56.8018855,196.444062 65.2270818,200.930646 C70.1114732,203.53281 75.5994683,205.083894 81.5471114,205.546262 C82.7997785,205.643037 84.0751754,205.691424 85.3707766,205.691424 C91.6442142,205.691424 98.3848763,204.546257 105.461435,202.277427 C106.610555,201.909146 107.325282,200.696773 107.143444,199.433326 C107.110612,199.215582 104.908342,183.860659 106.855532,170.094455 C110.585753,172.140165 115.151926,173.242321 120.081777,173.242321 C125.211146,173.242321 130.272325,172.054143 134.661711,169.852518 C136.664463,183.677863 134.444514,199.215582 134.411682,199.433326 C134.229844,200.696773 134.944571,201.909146 136.093691,202.277427 C143.17025,204.546257 149.910912,205.691424 156.189401,205.691424 C157.479951,205.691424 158.755348,205.643037 160.008015,205.546262 C165.955658,205.083894 171.448704,203.530122 176.328044,200.930646 C184.753241,196.444062 188.45568,190.382201 188.607212,190.126823 C188.814306,189.785423 188.940583,189.39026 188.975941,188.987032 C189.332042,184.914429 189.27648,180.581071 188.837036,176.048788 C195.486779,174.067595 198.812913,168.997674 198.96192,168.76649 C199.295291,168.250359 199.439247,167.621323 199.363481,167.00304 C198.426506,159.064824 196.246966,150.954565 192.890526,142.892692 C190.221031,136.47599 186.798927,130.075418 182.722708,123.868394 C182.235279,123.126455 181.752901,122.408709 181.273049,121.70978 C181.323559,121.763544 181.371545,121.81462 181.422055,121.868383 C186.667599,127.484005 191.504005,130.330795 195.802471,130.330795 C196.176251,130.330795 196.550031,130.306602 196.911183,130.266279 C198.519951,130.080794 199.795348,129.50821 200.772731,128.854981 C200.95457,128.87111 201.169241,128.881863 201.419269,128.881863 C202.277952,128.881863 203.505364,128.742077 204.869154,128.156052 C207.094154,127.199058 210.10207,124.80926 211.794181,118.871055 C213.120089,114.22318 212.385157,109.430143 209.667678,105.01614 C207.657349,101.747305 205.273241,99.8360041 205.169694,99.7553585 C204.717622,99.3924533 204.09634,99.373636 203.619013,99.6989066 C203.141686,100.026865 202.904286,100.637084 203.022986,101.225797 C203.697305,104.55646 201.19197,107.169378 198.53763,109.93821 C196.949066,111.596821 195.302415,113.309196 194.400798,115.228562 C193.153182,117.887179 193.413312,120.215148 194.15582,121.954405 C192.612716,121.36838 190.183148,119.881813 186.763569,116.217815 C181.048276,110.094125 175.875973,106.282276 171.377989,104.889795 C171.133012,104.814526 170.893086,104.763451 170.655685,104.73388 C171.582558,103.276883 172.453868,101.782251 173.269617,100.255361 C177.724667,101.064505 182.018082,101.47311 186.127134,101.47311 C190.327104,101.47311 194.337659,101.051065 198.120916,100.201598 C204.462543,98.7822349 210.198041,96.1773819 215.160724,92.4596195 C223.671788,86.077864 226.949937,78.6369629 227.086316,78.3251332 C227.540913,77.2632995 227.258053,75.9971635 226.391793,75.2659766 Z M58.4384345,189.277356 C60.7972874,186.718202 62.8707545,185.333786 64.383552,185.333786 C64.5628652,185.333786 64.8078425,185.374109 65.0831262,185.694003 C66.1337502,186.903687 66.5984492,190.535427 66.4115594,195.828467 C62.5045514,193.573078 59.8981957,190.987043 58.4384345,189.277356 Z M73.0688788,198.750526 C74.8190769,193.403723 76.8571865,190.280049 78.7866978,190.075747 C79.2109883,190.030048 79.5822425,190.164457 79.9509711,190.497793 C81.292032,191.712853 82.3047729,195.293518 82.8098806,200.487095 C79.3751483,200.293545 76.1172037,199.715585 73.0688788,198.750526 Z M88.7499471,200.444084 C89.5884258,195.164485 90.9471655,191.844574 92.5837145,191.207474 C94.3187594,190.527363 96.6271015,193.349959 98.9152394,198.839236 C95.4123175,199.688703 92.0154683,200.223652 88.7499471,200.444084 Z M142.634836,198.839236 C144.920448,193.347271 147.22879,190.527363 148.966361,191.204786 C150.600384,191.841886 151.959124,195.161797 152.797602,200.441396 C149.532081,200.223652 146.137758,199.688703 142.634836,198.839236 Z M158.737669,200.484407 C159.242777,195.293518 160.255518,191.710165 161.596578,190.495104 C161.965307,190.161769 162.336561,190.02736 162.763377,190.073059 C164.690363,190.277361 166.728473,193.401034 168.478671,198.747838 C165.430346,199.715585 162.172401,200.293545 158.737669,200.484407 Z M175.138516,195.825779 C174.951626,190.530051 175.413799,186.900999 176.466949,185.691315 C176.744758,185.37142 176.98721,185.331098 177.169049,185.331098 C178.679321,185.331098 180.752788,186.718202 183.111641,189.277356 C181.646828,190.992419 179.040473,193.573078 175.138516,195.825779 Z M194.458885,166.580995 C193.54464,167.680463 191.458545,169.77456 188.177871,170.922416 C188.099579,170.430478 188.028864,169.93854 187.942996,169.441225 C186.980766,163.922378 185.483121,158.140088 183.480369,152.263712 C180.078469,142.274409 176.444219,135.521684 176.287636,135.236736 C175.623419,134.013611 174.158607,133.594254 173.009487,134.298559 C171.860367,135.005552 171.466383,136.564701 172.128074,137.790514 C172.163431,137.85503 175.709287,144.433023 178.967232,154.005657 C181.891806,162.597102 185.142174,175.333731 184.258235,187.688637 C181.56096,184.806901 179.184428,183.347216 177.171574,183.347216 C176.381081,183.347216 175.666353,183.691304 175.100633,184.344533 C173.602988,186.070349 173.004436,190.261232 173.317602,196.796214 C172.32254,197.290841 171.299697,197.73708 170.246548,198.132243 C168.183183,191.771993 165.730885,188.39563 162.947742,188.09993 C162.010767,188.000467 161.152084,188.296168 160.391897,188.981655 C158.598764,190.608008 157.411761,194.492438 156.858668,200.546235 C156.143941,200.556988 155.421637,200.551611 154.694282,200.530106 C153.72195,194.048887 152.014686,190.285426 149.602796,189.341872 C146.660544,188.194016 143.698087,191.226291 140.793718,198.363427 C140.344172,198.242459 139.892101,198.116114 139.437504,197.981705 C139.791079,194.892978 140.339121,188.93058 140.296187,182.03538 C140.212844,168.492295 137.932283,158.349766 133.517642,151.890054 C132.739776,150.747574 131.237081,150.497573 130.163727,151.328223 C129.090373,152.156184 128.852972,153.755655 129.635889,154.898135 C131.474481,157.58901 132.770082,160.970749 133.669174,164.661629 C129.691451,166.906265 124.933337,168.12939 120.079252,168.12939 C115.333765,168.12939 111.052977,166.962717 107.840492,164.82292 C108.739584,161.0729 110.050338,157.632021 111.919237,154.900823 C112.697103,153.758343 112.459702,152.158872 111.386348,151.330911 C110.312994,150.500261 108.810299,150.750262 108.032433,151.892742 C103.620318,158.352455 101.339756,168.494984 101.253888,182.038069 C101.210954,188.933268 101.758996,194.892978 102.112571,197.984393 C101.657974,198.116114 101.205903,198.242459 100.756357,198.366115 C97.8519877,191.228979 94.8945822,188.194016 91.9472788,189.34456 C89.5353895,190.288114 87.8281255,194.051576 86.8557932,200.532794 C86.1284382,200.554299 85.4086597,200.559676 84.6939323,200.548923 C84.1383138,194.497815 82.9538363,190.610696 81.1581785,188.984343 C80.3979914,188.298856 79.5418338,188.003155 78.6023335,188.102618 C75.8217157,188.398319 73.3719434,191.774681 71.3060529,198.134931 C70.2554289,197.739768 69.2300603,197.290841 68.2349982,196.798902 C68.5456394,190.261232 67.9496123,186.073037 66.451968,184.344533 C65.8887729,183.693992 65.17152,183.347216 64.3860775,183.347216 C62.3732234,183.347216 59.9966917,184.804213 57.2994166,187.683261 C56.4104271,175.363301 59.6456418,162.664306 62.5550622,154.099743 C65.8130068,144.508293 69.3891692,137.85503 69.4245268,137.787826 C70.0836923,136.564701 69.6897083,135.005552 68.5431138,134.298559 C67.3939938,133.591566 65.9291815,134.013611 65.2649649,135.236736 C65.1109071,135.518996 61.4741317,142.271721 58.0722314,152.263712 C56.0745305,158.1374 54.5718351,163.91969 53.6096049,169.441225 C53.5287877,169.906282 53.4631237,170.363273 53.3898831,170.822953 C50.2203323,169.637463 48.2201058,167.586376 47.3462695,166.529919 C48.3792148,155.00835 52.2256098,146.731423 55.3168689,141.774407 C57.9510055,137.553953 60.4866462,134.965229 61.5675766,133.954471 C63.0475422,133.898019 64.5780185,133.844255 66.1741588,133.79318 C73.4502351,133.564684 80.4181957,132.548549 86.9542892,130.795852 C95.3340258,134.355011 104.234023,136.166849 113.421932,136.166849 C122.561856,136.166849 131.431547,134.376516 139.780977,130.846927 C147.855124,127.435618 155.10847,122.548495 161.338974,116.325342 C163.081595,114.586085 164.715618,112.760806 166.246095,110.865635 C167.660396,112.322632 173.113034,118.134492 178.856108,126.900669 C184.803751,135.994805 192.27682,150.180367 194.458885,166.580995 Z M196.835417,116.535021 C197.52994,115.051141 198.941716,113.575327 200.43936,112.018867 C202.588593,109.779607 204.944921,107.322604 205.652071,104.233878 C207.904852,106.911312 210.927921,111.89521 209.180249,118.037717 C207.80383,122.863012 205.523269,124.790442 203.672049,125.540446 C204.550937,123.610328 204.167055,122.268923 203.823582,121.604941 C203.255335,120.505473 202.131471,119.849555 200.818191,119.849555 C199.47713,119.849555 198.125967,120.537731 197.153634,121.701716 C196.474265,120.763538 195.683771,118.983959 196.835417,116.535021 Z M184.826481,118.271589 C190.190725,124.018933 193.759311,125.225929 195.812574,125.225929 C195.951478,125.225929 196.087857,125.220552 196.219185,125.209799 C196.643476,125.174853 197.012204,125.086143 197.337999,124.967863 C197.401137,124.949045 197.46175,124.92754 197.519838,124.89797 C198.224463,124.610334 198.694213,124.193665 198.954343,123.906029 C199.009905,123.854953 199.05789,123.798501 199.105876,123.736673 C199.575626,123.11839 200.214587,122.74742 200.818191,122.74742 C201.113679,122.74742 201.35613,122.846883 201.434422,123.00011 C201.532918,123.193659 201.545546,123.78506 200.949519,124.782378 C200.893957,124.876464 199.575626,127.040455 196.610644,127.384543 C196.345462,127.416801 196.070178,127.430242 195.794895,127.430242 C192.246513,127.430242 188.061696,124.871088 183.349041,119.825361 C179.096034,115.266196 175.489566,112.150588 172.683692,110.586063 C171.539623,109.27154 170.620327,108.279599 170.00157,107.631746 C170.059658,107.615617 170.117745,107.604864 170.180884,107.604864 C170.304635,107.604864 170.446065,107.629058 170.605174,107.677445 C174.658663,108.938205 179.436982,112.500052 184.826481,118.271589 Z M212.387682,88.2875536 C202.934592,95.3709258 190.251338,97.8386813 175.577959,95.4838297 C175.686558,95.2338283 175.797681,94.9865151 175.906279,94.7365137 C179.462238,86.3439945 181.262946,77.429967 181.262946,68.2390563 C181.262946,66.8277582 180.187067,65.6852788 178.858634,65.6852788 C177.535252,65.6852788 176.459372,66.8304464 176.459372,68.2390563 C176.459372,102.879032 148.183444,131.061982 113.419407,131.061982 C107.024743,131.061982 100.781612,130.121117 94.7809329,128.268956 C100.044155,126.255504 104.953802,123.709791 109.424005,120.661387 C111.196933,121.295799 113.040576,121.613005 114.929679,121.613005 C123.054336,121.613005 129.966735,115.580714 132.429135,107.228518 C132.429135,107.22583 132.43166,107.223141 132.434186,107.220453 C132.449339,107.182819 132.45439,107.145184 132.467018,107.107549 C133.068096,105.029581 133.396416,102.811827 133.396416,100.508051 C133.396416,97.5859918 132.855951,94.6988791 131.838159,92.0402624 C132.813017,89.2768063 133.585831,86.4138874 134.138924,83.4622582 C134.40158,82.077842 133.555525,80.7310604 132.254873,80.4541772 C130.956746,80.177294 129.688926,81.0751484 129.428795,82.4595646 C125.471276,103.51882 109.487143,119.182885 86.8052825,125.575393 C86.5956628,125.602275 86.3910942,125.658727 86.1966277,125.74206 C79.9383434,127.451747 73.1800025,128.459817 66.0276775,128.685625 C47.048256,129.285091 36.2768345,130.381871 32.3193157,130.854992 C30.4706215,126.131848 31.0944295,121.271606 31.4884135,119.252777 C36.6051545,116.58072 44.8333588,114.854904 54.2738215,112.876398 C56.9029071,112.32532 59.622912,111.752736 62.446464,111.131765 C71.3868702,109.15326 78.3447286,105.790338 84.3428825,100.545685 C89.434368,96.0913599 93.8439582,90.2579945 98.6525834,81.6262266 C106.095345,68.2659382 109.239641,63.0185975 109.269947,62.9702102 C109.984674,61.7793434 109.656354,60.1986896 108.540066,59.4379327 C107.423778,58.679864 105.936236,59.0266401 105.221509,60.2175069 C105.095232,60.4298736 102.019126,65.5669986 94.523328,79.0213736 C86.7800271,92.9219876 79.0367262,101.827951 62.8833822,105.795714 C60.6760615,102.854838 58.7516012,99.7634231 57.1150523,96.5483516 C57.0493883,96.3736195 56.9660455,96.2123283 56.8675495,96.0617898 C52.596864,87.4891621 50.3794412,78.0536264 50.3794412,68.2363681 C50.3794412,66.8250701 49.3060874,65.6825907 47.9801797,65.6825907 C46.654272,65.6825907 45.5809182,66.8277582 45.5809182,68.2363681 C45.5809182,76.005228 46.8765194,83.6235495 49.4399409,90.8789657 C49.9980849,92.4623077 50.6168418,94.021456 51.2911606,95.5537225 C36.7617378,97.8279286 24.6088468,95.4435069 15.1305009,88.4488448 C9.90011077,84.5859203 6.86946462,80.2256813 5.49557169,77.8923352 C15.8502794,68.7981992 19.3329969,62.349239 23.3309243,54.9325316 C26.92224,48.2658283 30.9959335,40.7120234 41.1814302,29.1447555 C50.0081871,19.1258832 60.3502671,12.9860646 71.9273354,10.8892788 C74.2028455,10.4779863 76.301568,10.2736841 78.1679409,10.1930385 C69.3336074,15.5882294 61.7670942,22.9941841 56.1907052,31.7442321 C55.4481969,32.9135934 55.7335828,34.5023118 56.8296665,35.2953269 C57.2438548,35.5910275 57.7110794,35.7361896 58.1757785,35.7361896 C58.9435422,35.7361896 59.6986782,35.3437143 60.1659028,34.6152157 C67.0202142,23.857092 76.7334351,15.6554341 87.98976,10.7226113 C88.1589711,10.6715357 88.3206055,10.5989547 88.4746634,10.5102445 C96.2154388,7.19571016 104.670942,5.41881868 113.419407,5.41881868 C134.30561,5.41881868 153.800241,15.7065096 165.571776,32.9377871 C166.349642,34.0802665 167.852337,34.3302679 168.925691,33.4996181 C169.999045,32.6716566 170.236446,31.0721854 169.45858,29.929706 C164.010993,21.9592321 156.861194,15.1876896 148.638041,10.171533 C150.559975,10.2333613 152.757194,10.4295989 155.161506,10.8543324 C163.180091,12.2656305 175.06275,16.5855467 186.124608,29.1474437 C196.31263,40.7147115 200.381273,48.2685165 203.977639,54.9352198 C207.975567,62.349239 211.453233,68.8035755 221.815518,77.8977115 C220.469406,80.1907349 217.527153,84.4353819 212.387682,88.2875536 Z M129.853086,96.927386 C130.062705,98.0994354 130.171303,99.3010549 130.171303,100.508051 C130.171303,101.803757 130.047552,103.067205 129.817728,104.284953 C128.719119,103.881725 127.585152,103.534949 126.418353,103.250001 C127.698801,101.217732 128.845396,99.1075055 129.853086,96.927386 Z M124.354988,106.298405 C125.935975,106.610235 127.45635,107.037657 128.898432,107.572606 C126.542105,113.809199 121.170284,118.180191 114.929679,118.180191 C114.280615,118.180191 113.639129,118.129115 113.005218,118.035029 C117.409758,114.569956 121.208167,110.634451 124.354988,106.298405 Z" id="Shape" fill="#FFFFFF"></path>
                        <path d="M75.2307397,157.441159 C72.1066486,157.857828 69.7705255,159.287944 69.6745551,159.349772 C69.2300603,159.623967 69.0810535,160.228809 69.341184,160.70193 C69.5962634,161.172363 70.1670351,161.333654 70.6090043,161.062147 C70.6292086,161.048706 72.7582375,159.750312 75.5211766,159.400848 C79.0973391,158.938479 82.0496935,160.220745 84.2873206,163.199255 C84.4691594,163.44388 84.7444431,163.570225 85.0146757,163.570225 C85.2167188,163.570225 85.4238129,163.497644 85.5955495,163.352482 C85.9971102,163.011082 86.0602486,162.387423 85.7395052,161.96269 C83.0952665,158.441165 79.4635422,156.879328 75.2307397,157.441159 Z" id="Shape" fill="#FFFFFF"></path>
                        <path d="M83.7519065,169.962734 C79.4408123,171.723496 75.7282708,171.734249 72.7254055,169.99768 C70.4953551,168.710038 69.4876652,166.874007 69.4674609,166.83906 C69.2123815,166.36594 68.6491865,166.199272 68.2046917,166.465402 C67.7551458,166.734221 67.5960369,167.333687 67.8511163,167.812184 C67.8991015,167.906271 69.0760025,170.102519 71.73792,171.677797 C73.1395938,172.508446 75.1246671,173.255762 77.7310228,173.255762 C79.6302277,173.255762 81.8552271,172.860599 84.4236997,171.812206 C84.9010265,171.618657 85.1434782,171.043385 84.9565883,170.535317 C84.7671729,170.021874 84.2317588,169.769184 83.7519065,169.962734 Z" id="Shape" fill="#FFFFFF"></path>
                        <path d="M73.3744689,165.624 C73.4022498,165.607871 76.3040935,163.984206 79.6479065,166.726157 C79.8196431,166.863254 80.0166351,166.930459 80.2161526,166.930459 C80.4939618,166.930459 80.7692455,166.796049 80.9510843,166.546048 C81.2642511,166.110562 81.1884849,165.489591 80.7843988,165.158944 C76.4884578,161.640107 72.6471138,163.793345 72.4880049,163.884743 C72.0359335,164.145497 71.869248,164.744963 72.1142252,165.226148 C72.361728,165.707334 72.9223975,165.884754 73.3744689,165.624 Z" id="Shape" fill="#FFFFFF"></path>
                        <path d="M155.81057,161.960001 C155.489826,162.384735 155.552965,163.008394 155.954526,163.349794 C156.126262,163.494956 156.333356,163.567537 156.535399,163.567537 C156.810683,163.567537 157.080916,163.441192 157.262754,163.196567 C159.500382,160.218056 162.452736,158.938479 166.028898,159.398159 C168.789312,159.750312 170.920866,161.048706 170.941071,161.059459 C171.38304,161.330966 171.953812,161.172363 172.211417,160.70193 C172.469022,160.231497 172.320015,159.623967 171.872994,159.347084 C171.777024,159.285255 169.445952,157.85514 166.31681,157.438471 C162.089058,156.87664 158.452283,158.441165 155.81057,161.960001 Z" id="Shape" fill="#FFFFFF"></path>
                        <path d="M172.082614,166.841749 C172.069986,166.857878 171.117858,168.640146 168.908012,169.949293 C165.892519,171.736937 162.152197,171.742313 157.798169,169.962734 C157.318316,169.769184 156.780377,170.021874 156.598538,170.532629 C156.416699,171.043385 156.6541,171.615968 157.131426,171.809518 C159.702425,172.857911 161.922373,173.253074 163.824103,173.253074 C166.430459,173.253074 168.413007,172.505758 169.817206,171.675109 C172.479124,170.099831 173.656025,167.903582 173.706535,167.809496 C173.956564,167.330999 173.797455,166.731533 173.347909,166.462714 C172.895838,166.193896 172.332642,166.36594 172.082614,166.841749 Z" id="Shape" fill="#FFFFFF"></path>
                        <path d="M161.328871,166.930459 C161.528389,166.930459 161.725381,166.863254 161.897118,166.726157 C165.195471,164.024529 168.044278,165.551419 168.175606,165.626688 C168.627678,165.882066 169.188347,165.704646 169.430799,165.226148 C169.678302,164.744963 169.511616,164.145497 169.057019,163.884743 C168.89791,163.790657 165.059092,161.640107 160.760625,165.158944 C160.354014,165.492279 160.280773,166.110562 160.59394,166.546048 C160.778304,166.798738 161.051062,166.930459 161.328871,166.930459 Z" id="Shape" fill="#FFFFFF"></path>
                    </g>
                </g>
            </g>
        </g>
    </g>
</svg>